<svg xmlns="http://www.w3.org/2000/svg" width="160" height="160" viewBox="0 0 160 160">
  <defs>
    <pattern id="waves" width="160" height="160" patternUnits="userSpaceOnUse">
      <rect width="100%" height="100%" fill="#FFFFFF" />
      <path d="M -44.00 0.00 C -33.00 0.00 -33.00 -8.00 -22.00 -8.00 C -11.00 -8.00 -11.00 0.00 0.00 0.00 C 11.00 0.00 11.00 -8.00 22.00 -8.00 C 33.00 -8.00 33.00 0.00 44.00 0.00 C 55.00 0.00 55.00 -8.00 66.00 -8.00 C 77.00 -8.00 77.00 0.00 88.00 0.00 C 99.00 0.00 99.00 -8.00 110.00 -8.00 C 121.00 -8.00 121.00 0.00 132.00 0.00 C 143.00 0.00 143.00 -8.00 154.00 -8.00 C 165.00 -8.00 165.00 0.00 176.00 0.00 C 187.00 0.00 187.00 -8.00 198.00 -8.00 C 209.00 -8.00 209.00 0.00 220.00 0.00" fill="none" stroke="#7CC4FF" stroke-width="2" /><path d="M -44.00 16.00 C -33.00 16.00 -33.00 8.00 -22.00 8.00 C -11.00 8.00 -11.00 16.00 0.00 16.00 C 11.00 16.00 11.00 8.00 22.00 8.00 C 33.00 8.00 33.00 16.00 44.00 16.00 C 55.00 16.00 55.00 8.00 66.00 8.00 C 77.00 8.00 77.00 16.00 88.00 16.00 C 99.00 16.00 99.00 8.00 110.00 8.00 C 121.00 8.00 121.00 16.00 132.00 16.00 C 143.00 16.00 143.00 8.00 154.00 8.00 C 165.00 8.00 165.00 16.00 176.00 16.00 C 187.00 16.00 187.00 8.00 198.00 8.00 C 209.00 8.00 209.00 16.00 220.00 16.00" fill="none" stroke="#7CC4FF" stroke-width="2" /><path d="M -44.00 32.00 C -33.00 32.00 -33.00 24.00 -22.00 24.00 C -11.00 24.00 -11.00 32.00 0.00 32.00 C 11.00 32.00 11.00 24.00 22.00 24.00 C 33.00 24.00 33.00 32.00 44.00 32.00 C 55.00 32.00 55.00 24.00 66.00 24.00 C 77.00 24.00 77.00 32.00 88.00 32.00 C 99.00 32.00 99.00 24.00 110.00 24.00 C 121.00 24.00 121.00 32.00 132.00 32.00 C 143.00 32.00 143.00 24.00 154.00 24.00 C 165.00 24.00 165.00 32.00 176.00 32.00 C 187.00 32.00 187.00 24.00 198.00 24.00 C 209.00 24.00 209.00 32.00 220.00 32.00" fill="none" stroke="#7CC4FF" stroke-width="2" /><path d="M -44.00 48.00 C -33.00 48.00 -33.00 40.00 -22.00 40.00 C -11.00 40.00 -11.00 48.00 0.00 48.00 C 11.00 48.00 11.00 40.00 22.00 40.00 C 33.00 40.00 33.00 48.00 44.00 48.00 C 55.00 48.00 55.00 40.00 66.00 40.00 C 77.00 40.00 77.00 48.00 88.00 48.00 C 99.00 48.00 99.00 40.00 110.00 40.00 C 121.00 40.00 121.00 48.00 132.00 48.00 C 143.00 48.00 143.00 40.00 154.00 40.00 C 165.00 40.00 165.00 48.00 176.00 48.00 C 187.00 48.00 187.00 40.00 198.00 40.00 C 209.00 40.00 209.00 48.00 220.00 48.00" fill="none" stroke="#7CC4FF" stroke-width="2" /><path d="M -44.00 64.00 C -33.00 64.00 -33.00 56.00 -22.00 56.00 C -11.00 56.00 -11.00 64.00 0.00 64.00 C 11.00 64.00 11.00 56.00 22.00 56.00 C 33.00 56.00 33.00 64.00 44.00 64.00 C 55.00 64.00 55.00 56.00 66.00 56.00 C 77.00 56.00 77.00 64.00 88.00 64.00 C 99.00 64.00 99.00 56.00 110.00 56.00 C 121.00 56.00 121.00 64.00 132.00 64.00 C 143.00 64.00 143.00 56.00 154.00 56.00 C 165.00 56.00 165.00 64.00 176.00 64.00 C 187.00 64.00 187.00 56.00 198.00 56.00 C 209.00 56.00 209.00 64.00 220.00 64.00" fill="none" stroke="#7CC4FF" stroke-width="2" /><path d="M -44.00 80.00 C -33.00 80.00 -33.00 72.00 -22.00 72.00 C -11.00 72.00 -11.00 80.00 0.00 80.00 C 11.00 80.00 11.00 72.00 22.00 72.00 C 33.00 72.00 33.00 80.00 44.00 80.00 C 55.00 80.00 55.00 72.00 66.00 72.00 C 77.00 72.00 77.00 80.00 88.00 80.00 C 99.00 80.00 99.00 72.00 110.00 72.00 C 121.00 72.00 121.00 80.00 132.00 80.00 C 143.00 80.00 143.00 72.00 154.00 72.00 C 165.00 72.00 165.00 80.00 176.00 80.00 C 187.00 80.00 187.00 72.00 198.00 72.00 C 209.00 72.00 209.00 80.00 220.00 80.00" fill="none" stroke="#7CC4FF" stroke-width="2" /><path d="M -44.00 96.00 C -33.00 96.00 -33.00 88.00 -22.00 88.00 C -11.00 88.00 -11.00 96.00 0.00 96.00 C 11.00 96.00 11.00 88.00 22.00 88.00 C 33.00 88.00 33.00 96.00 44.00 96.00 C 55.00 96.00 55.00 88.00 66.00 88.00 C 77.00 88.00 77.00 96.00 88.00 96.00 C 99.00 96.00 99.00 88.00 110.00 88.00 C 121.00 88.00 121.00 96.00 132.00 96.00 C 143.00 96.00 143.00 88.00 154.00 88.00 C 165.00 88.00 165.00 96.00 176.00 96.00 C 187.00 96.00 187.00 88.00 198.00 88.00 C 209.00 88.00 209.00 96.00 220.00 96.00" fill="none" stroke="#7CC4FF" stroke-width="2" /><path d="M -44.00 112.00 C -33.00 112.00 -33.00 104.00 -22.00 104.00 C -11.00 104.00 -11.00 112.00 0.00 112.00 C 11.00 112.00 11.00 104.00 22.00 104.00 C 33.00 104.00 33.00 112.00 44.00 112.00 C 55.00 112.00 55.00 104.00 66.00 104.00 C 77.00 104.00 77.00 112.00 88.00 112.00 C 99.00 112.00 99.00 104.00 110.00 104.00 C 121.00 104.00 121.00 112.00 132.00 112.00 C 143.00 112.00 143.00 104.00 154.00 104.00 C 165.00 104.00 165.00 112.00 176.00 112.00 C 187.00 112.00 187.00 104.00 198.00 104.00 C 209.00 104.00 209.00 112.00 220.00 112.00" fill="none" stroke="#7CC4FF" stroke-width="2" /><path d="M -44.00 128.00 C -33.00 128.00 -33.00 120.00 -22.00 120.00 C -11.00 120.00 -11.00 128.00 0.00 128.00 C 11.00 128.00 11.00 120.00 22.00 120.00 C 33.00 120.00 33.00 128.00 44.00 128.00 C 55.00 128.00 55.00 120.00 66.00 120.00 C 77.00 120.00 77.00 128.00 88.00 128.00 C 99.00 128.00 99.00 120.00 110.00 120.00 C 121.00 120.00 121.00 128.00 132.00 128.00 C 143.00 128.00 143.00 120.00 154.00 120.00 C 165.00 120.00 165.00 128.00 176.00 128.00 C 187.00 128.00 187.00 120.00 198.00 120.00 C 209.00 120.00 209.00 128.00 220.00 128.00" fill="none" stroke="#7CC4FF" stroke-width="2" /><path d="M -44.00 144.00 C -33.00 144.00 -33.00 136.00 -22.00 136.00 C -11.00 136.00 -11.00 144.00 0.00 144.00 C 11.00 144.00 11.00 136.00 22.00 136.00 C 33.00 136.00 33.00 144.00 44.00 144.00 C 55.00 144.00 55.00 136.00 66.00 136.00 C 77.00 136.00 77.00 144.00 88.00 144.00 C 99.00 144.00 99.00 136.00 110.00 136.00 C 121.00 136.00 121.00 144.00 132.00 144.00 C 143.00 144.00 143.00 136.00 154.00 136.00 C 165.00 136.00 165.00 144.00 176.00 144.00 C 187.00 144.00 187.00 136.00 198.00 136.00 C 209.00 136.00 209.00 144.00 220.00 144.00" fill="none" stroke="#7CC4FF" stroke-width="2" /><path d="M -44.00 160.00 C -33.00 160.00 -33.00 152.00 -22.00 152.00 C -11.00 152.00 -11.00 160.00 0.00 160.00 C 11.00 160.00 11.00 152.00 22.00 152.00 C 33.00 152.00 33.00 160.00 44.00 160.00 C 55.00 160.00 55.00 152.00 66.00 152.00 C 77.00 152.00 77.00 160.00 88.00 160.00 C 99.00 160.00 99.00 152.00 110.00 152.00 C 121.00 152.00 121.00 160.00 132.00 160.00 C 143.00 160.00 143.00 152.00 154.00 152.00 C 165.00 152.00 165.00 160.00 176.00 160.00 C 187.00 160.00 187.00 152.00 198.00 152.00 C 209.00 152.00 209.00 160.00 220.00 160.00" fill="none" stroke="#7CC4FF" stroke-width="2" /><path d="M -44.00 176.00 C -33.00 176.00 -33.00 168.00 -22.00 168.00 C -11.00 168.00 -11.00 176.00 0.00 176.00 C 11.00 176.00 11.00 168.00 22.00 168.00 C 33.00 168.00 33.00 176.00 44.00 176.00 C 55.00 176.00 55.00 168.00 66.00 168.00 C 77.00 168.00 77.00 176.00 88.00 176.00 C 99.00 176.00 99.00 168.00 110.00 168.00 C 121.00 168.00 121.00 176.00 132.00 176.00 C 143.00 176.00 143.00 168.00 154.00 168.00 C 165.00 168.00 165.00 176.00 176.00 176.00 C 187.00 176.00 187.00 168.00 198.00 168.00 C 209.00 168.00 209.00 176.00 220.00 176.00" fill="none" stroke="#7CC4FF" stroke-width="2" />
    </pattern>
  </defs>
  <!-- Big rect filled with the pattern, rotated for diagonal effect -->
  <g transform="rotate(45 80.0 80.0)">
    <rect x="0" y="0" width="160" height="160" fill="url(#waves)" />
  </g>
</svg>